<svg width="1920" height="913" viewBox="0 0 1920 913" fill="none" xmlns="http://www.w3.org/2000/svg">
<path d="M-64.6279 76.8833L225.476 -37L315 941.161L24.8965 1055.04L-64.6279 76.8833Z" fill="#4C59CE"/>
<path d="M27.0088 -30.8335L293.772 29.3253L244.291 970.447L-22.4727 910.288L27.0088 -30.8335Z" fill="#232D88"/>
<path d="M-75 88.4913L139.415 -16.3302L250.145 955.178L35.7304 1060L-75 88.4913Z" fill="#151D60"/>
<path d="M1972.01 919.006L1703.61 1041.59L1634.59 -40.5943L1902.99 -163.182L1972.01 919.006Z" fill="#4C59CE"/>
<path d="M1886.25 1037.03L1641.69 967.509L1700.03 -72.1624L1944.59 -2.64404L1886.25 1037.03Z" fill="#232D88"/>
<path d="M1981.71 906.293L1783.06 1019.72L1694.44 -55.3526L1893.09 -168.783L1981.71 906.293Z" fill="#151D60"/>
</svg>
